<?xml version="1.0" encoding="UTF-8" standalone="no"?>
<svg
   width="144"
   height="144"
   version="1.1"
   id="svg3"
   sodipodi:docname="logo.svg"
   inkscape:version="1.3.2 (091e20e, 2023-11-25, custom)"
   xmlns:inkscape="http://www.inkscape.org/namespaces/inkscape"
   xmlns:sodipodi="http://sodipodi.sourceforge.net/DTD/sodipodi-0.dtd"
   xmlns="http://www.w3.org/2000/svg"
   xmlns:svg="http://www.w3.org/2000/svg">
  <defs
     id="defs3" />
  <sodipodi:namedview
     id="namedview3"
     pagecolor="#ffffff"
     bordercolor="#000000"
     borderopacity="0.25"
     inkscape:showpageshadow="2"
     inkscape:pageopacity="0.0"
     inkscape:pagecheckerboard="0"
     inkscape:deskcolor="#d1d1d1"
     inkscape:zoom="1.9961037"
     inkscape:cx="211.41186"
     inkscape:cy="107.96032"
     inkscape:window-width="1920"
     inkscape:window-height="1009"
     inkscape:window-x="-8"
     inkscape:window-y="-8"
     inkscape:window-maximized="1"
     inkscape:current-layer="svg3" />
  <rect
     style="fill:#00e676;fill-opacity:1;fill-rule:evenodd;stroke:none;stroke-width:3.62585;stroke-linecap:round;stroke-linejoin:round"
     id="rect3"
     width="192"
     height="192"
     x="162.31621"
     y="-48.594669"
     ry="25.697409" />
  <path
     d="m25.356 117.91c5.5503-9.7492 9.0123-20.751 10.621-32.866l6.5232-65.814c0.70049-5.1585 3.7537-7.758 8.9482-8.0284l72.004 0.08361c4.6121 0.23705 6.6497 3.1363 6.3557 8.4465l-7.8609 82.374c-0.53558 5.5383-3.5768 8.2067-8.4465 8.7812l-67.155-0.16702c-8.5808 0.38951-15.532 2.8442-20.99 7.1923z"
     fill="#00e676"
     id="path1" />
  <path
     d="m25.356 117.91c5.5503-9.7492 9.0123-20.751 10.621-32.866l6.5232-65.814c0.70049-5.1585 3.7537-7.758 8.9482-8.0284l72.004 0.08361c4.6121 0.23705 6.6497 3.1363 6.3557 8.4465l-7.8609 82.374c-0.53558 5.5383-3.5768 8.2067-8.4465 8.7812l-67.155-0.16729c-8.5808 0.38951-15.532 2.8442-20.99 7.1923zm24.877-117.91c-10.696 0.60664-16.241 6.5269-17.95 16.75l-5.4263 54.678v0.0029c-2.0938 26.18-4.6759 39.459-20.65 58.357-2.7064 3.6361-2.34 8.4568-2.8442 12.796 0.61578 8.143 15.573-21.554 47.567-20.1h61.715c11.166-0.97611 17.672-6.6531 19.929-16.617 3.0752-29.341 5.4172-58.637 8.0279-88.026 0.48785-8.0144-3.956-16.421-13.841-17.61z"
     fill="#fff"
     id="path2" />
  <path
     d="m109.42 25.208c1.5234 0 2.6082 1.2754 2.4328 2.8613l-0.86547 7.8027c-0.17714 1.5858-1.5454 2.8646-3.0705 2.8646h-7.4906c-1.5251 0-2.6116-1.2788-2.4361-2.8646l0.86546-7.801c0.17546-1.5858 1.5437-2.863 3.0671-2.863zm-19.03 0c1.5234 0 2.6082 1.2754 2.4328 2.8613l-0.86546 7.8027c-0.17714 1.5858-1.5454 2.8646-3.0705 2.8646h-7.4906c-1.5251 0-2.6116-1.2788-2.4361-2.8646l0.86546-7.801c0.17546-1.5858 1.5437-2.863 3.0671-2.863zm-19.03 0c1.5234 0 2.6082 1.2754 2.4327 2.8613l-0.86546 7.8027c-0.17714 1.5858-1.5454 2.8646-3.0688 2.8646h-7.4939c-1.5234 0-2.6099-1.2788-2.4344-2.8646l0.86546-7.801c0.17546-1.5858 1.5437-2.863 3.0671-2.863zm35.867 19.81c1.5234 0 2.6082 1.2754 2.4328 2.863l-0.86546 7.801c-0.17715 1.5858-1.5454 2.8646-3.0705 2.8646h-7.4906c-1.5251 0-2.6116-1.2788-2.4361-2.8646l0.86546-7.801c0.17546-1.5858 1.5437-2.863 3.0671-2.863zm-19.035 0c1.5234 0 2.6116 1.2754 2.4361 2.863l-0.86546 7.801c-0.17546 1.5858-1.5437 2.8646-3.0688 2.8646h-7.4923c-1.5234 0-2.6116-1.2788-2.4344-2.8646l0.86378-7.801c0.17714-1.5858 1.5437-2.863 3.0688-2.863zm-19.03 0c1.5234 0 2.6116 1.2754 2.4361 2.863l-0.86546 7.801c-0.17546 1.5858-1.5454 2.8646-3.0688 2.8646h-7.4923c-1.5251 0-2.6116-1.2788-2.4361-2.8646l0.86546-7.801c0.17714-1.5858 1.5437-2.863 3.0688-2.863zm35.867 19.81c1.5234 0 2.6116 1.2788 2.4344 2.8663l-0.86378 7.801c-0.17714 1.5858-1.5454 2.8613-3.0688 2.8613h-7.4923c-1.5251 0-2.6133-1.2754-2.4361-2.8613l0.86546-7.801c0.17546-1.5858 1.5437-2.8663 3.0671-2.8663zm-19.03 0c1.5234 0 2.6116 1.2788 2.4344 2.8663l-0.86546 7.801c-0.17546 1.5858-1.542 2.8613-3.0671 2.8613h-7.4923c-1.5251 0-2.6116-1.2754-2.4361-2.8613l0.86546-7.801c0.17546-1.5858 1.5437-2.8663 3.0688-2.8663zm-19.03 0c1.5234 0 2.6116 1.2788 2.4344 2.8663l-0.86378 7.801c-0.17714 1.5858-1.5437 2.8613-3.0688 2.8613h-7.4939c-1.5234 0-2.6116-1.2754-2.4344-2.8613l0.86378-7.801c0.17714-1.5858 1.5454-2.8663 3.0705-2.8663zm16.837 19.813c1.5234 0 2.6116 1.2754 2.4344 2.8613l-0.86546 7.8027c-0.17546 1.5858-1.5437 2.8613-3.0671 2.8613h-7.4939c-1.5234 0-2.6116-1.2754-2.4344-2.8613l0.86378-7.801c0.17714-1.5858 1.5437-2.863 3.0688-2.863z"
     fill="#fff"
     id="path3" />
  <g
     stroke-width="0.72624"
     id="g7"
     transform="matrix(5.2271956,0,0,5.2271956,-212.59067,-765.61869)">
    <path
       d="m 79.913,164.8 c 1.1197,-1.9667 1.8181,-4.186 2.1426,-6.6303 l 1.3159,-13.277 c 0.14131,-1.0406 0.75725,-1.565 1.8051,-1.6196 l 14.526,0.0169 c 0.93046,0.0478 1.3414,0.6327 1.2822,1.7039 l -1.5858,16.618 c -0.10804,1.1172 -0.72156,1.6555 -1.7039,1.7714 l -13.547,-0.0337 c -1.7311,0.0786 -3.1334,0.57376 -4.2344,1.451 z"
       fill="#00e676"
       id="path5" />
    <path
       d="m 79.913,164.8 c 1.1197,-1.9667 1.8181,-4.186 2.1426,-6.6303 l 1.3159,-13.277 c 0.14131,-1.0406 0.75725,-1.565 1.8051,-1.6196 l 14.526,0.0169 c 0.93046,0.0478 1.3414,0.6327 1.2822,1.7039 l -1.5858,16.618 c -0.10804,1.1172 -0.72156,1.6555 -1.7039,1.7714 l -13.547,-0.0338 c -1.7311,0.0786 -3.1334,0.57376 -4.2344,1.451 z m 5.0184,-23.787 c -2.1577,0.12239 -3.2763,1.3167 -3.6211,3.379 l -1.0947,11.03 v 5.8e-4 c -0.42239,5.2815 -0.94332,7.9603 -4.1657,11.772 -0.54598,0.7335 -0.47205,1.706 -0.57376,2.5814 0.12423,1.6427 3.1416,-4.3481 9.5958,-4.055 h 12.45 c 2.2525,-0.19691 3.565,-1.3422 4.0204,-3.3521 0.62037,-5.9192 1.0928,-11.829 1.6195,-17.758 0.0984,-1.6168 -0.79806,-3.3128 -2.7922,-3.5525 z"
       fill="#ffffff"
       id="path6" />
    <path
       d="m 96.873,146.1 c 0.30732,0 0.52616,0.25729 0.49076,0.57722 l -0.17459,1.574 c -0.03575,0.3199 -0.31175,0.57789 -0.61943,0.57789 h -1.5111 c -0.30768,0 -0.52686,-0.25799 -0.49144,-0.57789 l 0.1746,-1.5737 c 0.0354,-0.3199 0.31143,-0.57757 0.61873,-0.57757 z m -3.8391,0 c 0.30732,0 0.52616,0.25729 0.49076,0.57722 l -0.1746,1.574 c -0.03575,0.3199 -0.31175,0.57789 -0.61943,0.57789 h -1.5111 c -0.30768,0 -0.52686,-0.25799 -0.49144,-0.57789 l 0.1746,-1.5737 c 0.0354,-0.3199 0.31143,-0.57757 0.61873,-0.57757 z m -3.8391,0 c 0.30732,0 0.52616,0.25729 0.49076,0.57722 l -0.1746,1.574 c -0.03575,0.3199 -0.31175,0.57789 -0.61908,0.57789 h -1.5117 c -0.30733,0 -0.52651,-0.25799 -0.49109,-0.57789 l 0.1746,-1.5737 c 0.0354,-0.3199 0.31143,-0.57757 0.61873,-0.57757 z m 7.2355,3.9962 c 0.30732,0 0.52616,0.25729 0.49076,0.57756 l -0.1746,1.5737 c -0.03575,0.31991 -0.31175,0.5779 -0.61943,0.5779 h -1.5111 c -0.30768,0 -0.52684,-0.25799 -0.49144,-0.5779 l 0.1746,-1.5737 c 0.0354,-0.3199 0.3114,-0.57756 0.61873,-0.57756 z m -3.8399,0 c 0.30733,0 0.52684,0.25729 0.49144,0.57756 l -0.17459,1.5737 c -0.0354,0.31991 -0.31143,0.5779 -0.61908,0.5779 h -1.5115 c -0.30732,0 -0.52686,-0.25799 -0.49109,-0.5779 l 0.17424,-1.5737 c 0.03575,-0.3199 0.31143,-0.57756 0.61908,-0.57756 z m -3.8391,0 c 0.30733,0 0.52684,0.25729 0.49144,0.57756 l -0.17459,1.5737 c -0.0354,0.31991 -0.31175,0.5779 -0.61908,0.5779 h -1.5115 c -0.30768,0 -0.52686,-0.25799 -0.49144,-0.5779 l 0.17459,-1.5737 c 0.03574,-0.3199 0.31143,-0.57756 0.61908,-0.57756 z m 7.2355,3.9962 c 0.30732,0 0.52686,0.25799 0.49109,0.57824 l -0.17424,1.5737 c -0.03575,0.31991 -0.31175,0.57722 -0.61908,0.57722 h -1.5115 c -0.30768,0 -0.52719,-0.25729 -0.49144,-0.57722 l 0.17459,-1.5737 c 0.0354,-0.3199 0.31143,-0.57824 0.61873,-0.57824 z m -3.8391,0 c 0.30732,0 0.52686,0.25799 0.49109,0.57824 l -0.17459,1.5737 c -0.0354,0.31991 -0.31108,0.57722 -0.61873,0.57722 h -1.5115 c -0.30768,0 -0.52684,-0.25729 -0.49144,-0.57722 l 0.1746,-1.5737 c 0.0354,-0.3199 0.31143,-0.57824 0.61908,-0.57824 z m -3.8391,0 c 0.30732,0 0.52684,0.25799 0.49109,0.57824 l -0.17425,1.5737 c -0.03575,0.31991 -0.31143,0.57722 -0.61908,0.57722 h -1.5117 c -0.30733,0 -0.52684,-0.25729 -0.49109,-0.57722 l 0.17425,-1.5737 c 0.03575,-0.3199 0.31175,-0.57824 0.61943,-0.57824 z m 3.3966,3.997 c 0.30733,0 0.52686,0.25729 0.49109,0.57721 l -0.1746,1.5741 c -0.0354,0.3199 -0.31143,0.57722 -0.61873,0.57722 h -1.5117 c -0.30732,0 -0.52684,-0.2573 -0.49109,-0.57722 l 0.17425,-1.5737 c 0.03575,-0.31991 0.31143,-0.57757 0.61908,-0.57757 z"
       fill="#ffffff"
       id="path7" />
  </g>
</svg>
