<svg
   width="39"
   height="39"
   viewBox="0 0 39 39"
   >
<path
     fill="#00e676"
     d="m 10.7,32.8 0.6,0.3 c 2.5,1.5 5.3,2.2 8.1,2.2 8.8,0 16,-7.2 16,-16 0,-4.2 -1.7,-8.3 -4.7,-11.3 -3,-3 -7,-4.7 -11.3,-4.7 -8.8,0 -16,7.2 -15.9,16.1 0,3 0.9,5.9 2.4,8.4 l 0.4,0.6 -1.6,5.9 z"
 />
<path
     fill="#ffffff"
     d="M 19.5 1 C 9.3000102 1 1.0992188 9.3004007 1.1992188 19.400391 C 1.1992188 22.600387 2.0996109 25.700003 3.5996094 28.5 L 1 38 L 10.699219 35.5 C 13.399216 36.999998 16.400394 37.699219 19.400391 37.699219 C 29.500381 37.699219 37.699219 29.400771 37.699219 19.300781 C 37.699219 14.400786 35.800387 9.8003872 32.400391 6.4003906 C 29.000394 2.9003941 24.299995 1 19.5 1 z M 19.285156 4.2089844 C 24.414796 4.1455384 29.413284 6.6753954 32.300781 11.400391 C 36.700777 18.600383 34.600383 27.900786 27.400391 32.300781 C 25.100393 33.80078 22.299997 34.599609 19.5 34.599609 C 16.800003 34.599609 14.100779 33.899999 11.800781 32.5 L 11.199219 32.199219 L 5.4003906 33.699219 L 6.9003906 28 L 6.5 27.400391 C 2.1000044 20.300398 4.2003978 10.899996 11.400391 6.5 C 13.875388 4.9875015 16.598202 4.242218 19.285156 4.2089844 z M 13.595703 9.9277344 A 2 2 0 0 0 11.595703 11.927734 A 2 2 0 0 0 13.595703 13.927734 A 2 2 0 0 0 15.595703 11.927734 A 2 2 0 0 0 13.595703 9.9277344 z M 19.566406 9.9277344 A 2 2 0 0 0 17.566406 11.927734 A 2 2 0 0 0 19.566406 13.927734 A 2 2 0 0 0 21.566406 11.927734 A 2 2 0 0 0 19.566406 9.9277344 z M 25.4375 9.9277344 A 2 2 0 0 0 23.4375 11.927734 A 2 2 0 0 0 25.4375 13.927734 A 2 2 0 0 0 27.4375 11.927734 A 2 2 0 0 0 25.4375 9.9277344 z M 13.595703 15.699219 A 2 2 0 0 0 11.595703 17.699219 A 2 2 0 0 0 13.595703 19.699219 A 2 2 0 0 0 15.595703 17.699219 A 2 2 0 0 0 13.595703 15.699219 z M 19.566406 15.699219 A 2 2 0 0 0 17.566406 17.699219 A 2 2 0 0 0 19.566406 19.699219 A 2 2 0 0 0 21.566406 17.699219 A 2 2 0 0 0 19.566406 15.699219 z M 25.4375 15.699219 A 2 2 0 0 0 23.4375 17.699219 A 2 2 0 0 0 25.4375 19.699219 A 2 2 0 0 0 27.4375 17.699219 A 2 2 0 0 0 25.4375 15.699219 z M 13.595703 21.771484 A 2 2 0 0 0 11.595703 23.771484 A 2 2 0 0 0 13.595703 25.771484 A 2 2 0 0 0 15.595703 23.771484 A 2 2 0 0 0 13.595703 21.771484 z M 19.566406 21.771484 A 2 2 0 0 0 17.566406 23.771484 A 2 2 0 0 0 19.566406 25.771484 A 2 2 0 0 0 21.566406 23.771484 A 2 2 0 0 0 19.566406 21.771484 z M 25.4375 21.771484 A 2 2 0 0 0 23.4375 23.771484 A 2 2 0 0 0 25.4375 25.771484 A 2 2 0 0 0 27.4375 23.771484 A 2 2 0 0 0 25.4375 21.771484 z M 19.566406 27.443359 A 2 2 0 0 0 17.566406 29.443359 A 2 2 0 0 0 19.566406 31.443359 A 2 2 0 0 0 21.566406 29.443359 A 2 2 0 0 0 19.566406 27.443359 z " /></svg>
