<svg width="144" height="144" version="1.1" viewBox="0 0 39 39" xmlns="http://www.w3.org/2000/svg">
 <rect width="39" height="39" fill="#00a884" stroke-width="1.0456"/>
 <path d="m14.376 27.405 0.35136 0.17568c1.464 0.87839 3.1036 1.2883 4.7433 1.2883 5.1532 0 9.3695-4.2163 9.3695-9.3695 0-2.4595-0.99551-4.8604-2.7523-6.6172s-4.0991-2.7523-6.6172-2.7523c-5.1532 0-9.3695 4.2163-9.3109 9.428 0 1.7568 0.52703 3.455 1.4054 4.919l0.23424 0.35136-0.93695 3.455z" fill="#00e676" stroke-width=".58559"/>
 <path d="m19.588 8.6667c-5.973 0-10.775 4.8606-10.717 10.775 0 1.8739 0.52726 3.689 1.4057 5.3287l-1.5223 5.5631 5.6798-1.464c1.5811 0.87839 3.3386 1.2878 5.0954 1.2878 5.9145 0 10.716-4.8595 10.716-10.774 0-2.8694-1.1119-5.5634-3.1029-7.5541-1.991-2.0496-4.7435-3.1624-7.5541-3.1624zm-0.12581 1.8792c3.0039-0.03715 5.9309 1.4443 7.6221 4.2112 2.5766 4.2163 1.3466 9.6623-2.8696 12.239-1.3469 0.87839-2.9868 1.3462-4.6264 1.3462-1.5811 0-3.1617-0.40969-4.5086-1.2295l-0.35227-0.17613-3.3957 0.87839 0.87839-3.3374-0.23446-0.35113c-2.5766-4.1577-1.3466-9.6623 2.8696-12.239 1.4493-0.88571 3.0438-1.3222 4.6173-1.3416zm-3.3317 3.3489a1.1712 1.1712 0 0 0-1.1712 1.1712 1.1712 1.1712 0 0 0 1.1712 1.1712 1.1712 1.1712 0 0 0 1.1712-1.1712 1.1712 1.1712 0 0 0-1.1712-1.1712zm3.4964 0a1.1712 1.1712 0 0 0-1.1712 1.1712 1.1712 1.1712 0 0 0 1.1712 1.1712 1.1712 1.1712 0 0 0 1.1712-1.1712 1.1712 1.1712 0 0 0-1.1712-1.1712zm3.4381 0a1.1712 1.1712 0 0 0-1.1712 1.1712 1.1712 1.1712 0 0 0 1.1712 1.1712 1.1712 1.1712 0 0 0 1.1712-1.1712 1.1712 1.1712 0 0 0-1.1712-1.1712zm-6.9346 3.3797a1.1712 1.1712 0 0 0-1.1712 1.1712 1.1712 1.1712 0 0 0 1.1712 1.1712 1.1712 1.1712 0 0 0 1.1712-1.1712 1.1712 1.1712 0 0 0-1.1712-1.1712zm3.4964 0a1.1712 1.1712 0 0 0-1.1712 1.1712 1.1712 1.1712 0 0 0 1.1712 1.1712 1.1712 1.1712 0 0 0 1.1712-1.1712 1.1712 1.1712 0 0 0-1.1712-1.1712zm3.4381 0a1.1712 1.1712 0 0 0-1.1712 1.1712 1.1712 1.1712 0 0 0 1.1712 1.1712 1.1712 1.1712 0 0 0 1.1712-1.1712 1.1712 1.1712 0 0 0-1.1712-1.1712zm-6.9346 3.5559a1.1712 1.1712 0 0 0-1.1712 1.1712 1.1712 1.1712 0 0 0 1.1712 1.1712 1.1712 1.1712 0 0 0 1.1712-1.1712 1.1712 1.1712 0 0 0-1.1712-1.1712zm3.4964 0a1.1712 1.1712 0 0 0-1.1712 1.1712 1.1712 1.1712 0 0 0 1.1712 1.1712 1.1712 1.1712 0 0 0 1.1712-1.1712 1.1712 1.1712 0 0 0-1.1712-1.1712zm3.4381 0a1.1712 1.1712 0 0 0-1.1712 1.1712 1.1712 1.1712 0 0 0 1.1712 1.1712 1.1712 1.1712 0 0 0 1.1712-1.1712 1.1712 1.1712 0 0 0-1.1712-1.1712zm-3.4381 3.3214a1.1712 1.1712 0 0 0-1.1712 1.1712 1.1712 1.1712 0 0 0 1.1712 1.1712 1.1712 1.1712 0 0 0 1.1712-1.1712 1.1712 1.1712 0 0 0-1.1712-1.1712z" fill="#fff" stroke-width=".58559"/>
</svg>
